<?xml version="1.0" standalone="no"?>
<!DOCTYPE svg PUBLIC "-//W3C//DTD SVG 20010904//EN"
 "http://www.w3.org/TR/2001/REC-SVG-20010904/DTD/svg10.dtd">
<svg version="1.0" xmlns="http://www.w3.org/2000/svg"
 width="400.000000pt" height="400.000000pt" viewBox="0 0 400.000000 400.000000"
 preserveAspectRatio="xMidYMid meet">
<metadata>
Created by potrace 1.14, written by Peter Selinger 2001-2017
</metadata>
<g transform="translate(0.000000,400.000000) scale(0.100000,-0.100000)"
fill="#000000" stroke="none">
<path d="M0 2000 l0 -2000 2000 0 2000 0 0 2000 0 2000 -2000 0 -2000 0 0
-2000z m2166 1449 c125 -17 252 -53 417 -118 167 -67 248 -88 290 -77 44 11
95 64 127 132 l31 64 60 0 59 0 0 -505 0 -505 -57 1 -58 0 -67 137 c-113 230
-224 378 -377 506 -164 137 -312 206 -484 225 -272 31 -507 -85 -648 -320
-126 -211 -190 -476 -210 -879 -15 -311 11 -637 71 -863 79 -301 239 -529 435
-622 176 -84 465 -97 615 -29 139 63 160 128 159 494 0 239 -9 341 -34 393
-33 69 -130 106 -322 122 l-83 7 0 54 0 54 740 0 740 0 0 -54 0 -54 -82 -12
c-157 -23 -237 -69 -268 -156 -10 -30 -14 -128 -17 -407 l-5 -368 -66 -33
c-210 -105 -535 -188 -856 -217 -178 -17 -495 -6 -619 21 -648 139 -1077 596
-1162 1238 -112 848 388 1596 1172 1752 54 11 114 21 133 23 79 9 294 6 366
-4z"/>
</g>
</svg>
