<?xml version="1.0" standalone="no"?>
<!DOCTYPE svg PUBLIC "-//W3C//DTD SVG 20010904//EN"
 "http://www.w3.org/TR/2001/REC-SVG-20010904/DTD/svg10.dtd">
<svg version="1.0" xmlns="http://www.w3.org/2000/svg"
 width="400.000000pt" height="400.000000pt" viewBox="0 0 400.000000 400.000000"
 preserveAspectRatio="xMidYMid meet">
<metadata>
Created by potrace 1.14, written by Peter Selinger 2001-2017
</metadata>
<g transform="translate(0.000000,400.000000) scale(0.100000,-0.100000)"
fill="#000000" stroke="none">
<path d="M1765 3421 c-473 -55 -862 -317 -1074 -720 -268 -513 -210 -1190 137
-1610 206 -248 478 -404 817 -467 119 -23 462 -26 610 -6 330 44 501 88 697
179 l97 45 3 347 3 346 25 50 c35 70 91 102 214 123 l96 16 0 48 0 48 -685 0
-685 0 0 -48 0 -48 117 -12 c171 -18 236 -52 270 -141 16 -40 18 -82 18 -336
0 -332 -4 -354 -79 -423 -69 -63 -124 -77 -311 -77 -140 0 -170 3 -235 23
-102 32 -169 72 -243 145 -157 155 -253 377 -302 697 -37 241 -30 689 16 940
92 512 349 779 728 757 205 -12 411 -123 596 -318 92 -99 165 -208 245 -366
l61 -121 49 -4 50 -3 -2 465 -3 465 -50 0 c-46 0 -51 -3 -64 -30 -32 -70 -73
-124 -108 -140 -52 -25 -109 -14 -282 54 -171 68 -233 87 -345 107 -102 18
-290 25 -381 15z"/>
</g>
</svg>
